<?xml version="1.0" encoding="UTF-8" standalone="no"?>
<!DOCTYPE svg PUBLIC "-//W3C//DTD SVG 1.1//EN"
 "http://www.w3.org/Graphics/SVG/1.1/DTD/svg11.dtd">
<!-- Generated by graphviz version 2.47.0 (20210316.0004)
 -->
<!-- Title: dependencies Pages: 1 -->
<svg width="898pt" height="211pt"
 viewBox="0.00 0.00 898.00 211.00" xmlns="http://www.w3.org/2000/svg" xmlns:xlink="http://www.w3.org/1999/xlink">
<g id="graph0" class="graph" transform="scale(1 1) rotate(0) translate(4 207)">
<title>dependencies</title>
<polygon fill="white" stroke="transparent" points="-4,4 -4,-207 894,-207 894,4 -4,4"/>
<text text-anchor="start" x="424.01" y="-42.4" font-family="Times-12" font-weight="bold" font-size="14.00">Legend</text>
<polygon fill="#ffffb3" stroke="transparent" points="211,-10 211,-30 231,-30 231,-10 211,-10"/>
<text text-anchor="start" x="234.63" y="-15.4" font-family="Times-12" font-size="14.00"> &#160;Declarations</text>
<polygon fill="#8dd3c7" stroke="transparent" points="324,-10 324,-30 344,-30 344,-10 324,-10"/>
<text text-anchor="start" x="347.73" y="-15.4" font-family="Times-12" font-size="14.00"> &#160;Module</text>
<polygon fill="#80b1d3" stroke="transparent" points="410,-10 410,-30 430,-30 430,-10 410,-10"/>
<text text-anchor="start" x="433.78" y="-15.4" font-family="Times-12" font-size="14.00"> &#160;Bootstrap</text>
<polygon fill="#fdb462" stroke="transparent" points="507,-10 507,-30 527,-30 527,-10 507,-10"/>
<text text-anchor="start" x="530.67" y="-15.4" font-family="Times-12" font-size="14.00"> &#160;Providers</text>
<polygon fill="#fb8072" stroke="transparent" points="603,-10 603,-30 623,-30 623,-10 603,-10"/>
<text text-anchor="start" x="626.73" y="-15.4" font-family="Times-12" font-size="14.00"> &#160;Exports</text>
<g id="clust1" class="cluster">
<title>cluster_CategoriesModule</title>
<polygon fill="none" stroke="black" stroke-dasharray="1,5" points="8,-70 8,-195 882,-195 882,-70 8,-70"/>
</g>
<g id="clust6" class="cluster">
<title>cluster_CategoriesModule_providers</title>
<polygon fill="none" stroke="black" points="138,-78 138,-130 874,-130 874,-78 138,-78"/>
</g>
<g id="clust3" class="cluster">
<title>cluster_CategoriesModule_imports</title>
<polygon fill="none" stroke="black" points="16,-78 16,-130 130,-130 130,-78 16,-78"/>
</g>
<!-- PrismaModule -->
<g id="node1" class="node">
<title>PrismaModule</title>
<polygon fill="#8dd3c7" stroke="black" points="122.43,-122 119.43,-126 98.43,-126 95.43,-122 23.57,-122 23.57,-86 122.43,-86 122.43,-122"/>
<text text-anchor="middle" x="73" y="-99.8" font-family="Times,serif" font-size="14.00">PrismaModule</text>
</g>
<!-- CategoriesModule -->
<g id="node2" class="node">
<title>CategoriesModule</title>
<polygon fill="#8dd3c7" stroke="black" points="444.92,-187 441.92,-191 420.92,-191 417.92,-187 325.08,-187 325.08,-151 444.92,-151 444.92,-187"/>
<text text-anchor="middle" x="385" y="-164.8" font-family="Times,serif" font-size="14.00">CategoriesModule</text>
</g>
<!-- PrismaModule&#45;&gt;CategoriesModule -->
<g id="edge1" class="edge">
<title>PrismaModule&#45;&gt;CategoriesModule</title>
<path fill="none" stroke="black" d="M73,-122.28C73,-143.32 73,-175 73,-175 73,-175 315.21,-175 315.21,-175"/>
<polygon fill="black" stroke="black" points="315.21,-178.5 325.21,-175 315.21,-171.5 315.21,-178.5"/>
</g>
<!-- CategoriesService -->
<g id="node3" class="node">
<title>CategoriesService</title>
<ellipse fill="#fdb462" stroke="black" cx="785" cy="-104" rx="81.07" ry="18"/>
<text text-anchor="middle" x="785" y="-99.8" font-family="Times,serif" font-size="14.00">CategoriesService</text>
</g>
<!-- CategoriesService&#45;&gt;CategoriesModule -->
<g id="edge2" class="edge">
<title>CategoriesService&#45;&gt;CategoriesModule</title>
<path fill="none" stroke="black" d="M785,-122.28C785,-143.32 785,-175 785,-175 785,-175 454.88,-175 454.88,-175"/>
<polygon fill="black" stroke="black" points="454.88,-171.5 444.88,-175 454.88,-178.5 454.88,-171.5"/>
</g>
<!-- FindAllCategoryProvider -->
<g id="node4" class="node">
<title>FindAllCategoryProvider</title>
<ellipse fill="#fdb462" stroke="black" cx="576" cy="-104" rx="109.97" ry="18"/>
<text text-anchor="middle" x="576" y="-99.8" font-family="Times,serif" font-size="14.00">FindAllCategoryProvider</text>
</g>
<!-- FindAllCategoryProvider&#45;&gt;CategoriesModule -->
<g id="edge3" class="edge">
<title>FindAllCategoryProvider&#45;&gt;CategoriesModule</title>
<path fill="none" stroke="black" d="M576,-122.02C576,-139.37 576,-163 576,-163 576,-163 454.91,-163 454.91,-163"/>
<polygon fill="black" stroke="black" points="454.91,-159.5 444.91,-163 454.91,-166.5 454.91,-159.5"/>
</g>
<!-- GenerateSlug -->
<g id="node5" class="node">
<title>GenerateSlug</title>
<ellipse fill="#fdb462" stroke="black" cx="385" cy="-104" rx="63.68" ry="18"/>
<text text-anchor="middle" x="385" y="-99.8" font-family="Times,serif" font-size="14.00">GenerateSlug</text>
</g>
<!-- GenerateSlug&#45;&gt;CategoriesModule -->
<g id="edge4" class="edge">
<title>GenerateSlug&#45;&gt;CategoriesModule</title>
<path fill="none" stroke="black" d="M385,-122.11C385,-122.11 385,-140.99 385,-140.99"/>
<polygon fill="black" stroke="black" points="381.5,-140.99 385,-150.99 388.5,-140.99 381.5,-140.99"/>
</g>
<!-- PaginationHelper -->
<g id="node6" class="node">
<title>PaginationHelper</title>
<ellipse fill="#fdb462" stroke="black" cx="225" cy="-104" rx="78.73" ry="18"/>
<text text-anchor="middle" x="225" y="-99.8" font-family="Times,serif" font-size="14.00">PaginationHelper</text>
</g>
<!-- PaginationHelper&#45;&gt;CategoriesModule -->
<g id="edge5" class="edge">
<title>PaginationHelper&#45;&gt;CategoriesModule</title>
<path fill="none" stroke="black" d="M225,-122.02C225,-139.37 225,-163 225,-163 225,-163 314.97,-163 314.97,-163"/>
<polygon fill="black" stroke="black" points="314.97,-166.5 324.97,-163 314.97,-159.5 314.97,-166.5"/>
</g>
</g>
</svg>
