<?xml version="1.0" encoding="UTF-8" standalone="no"?>
<!DOCTYPE svg PUBLIC "-//W3C//DTD SVG 1.1//EN"
 "http://www.w3.org/Graphics/SVG/1.1/DTD/svg11.dtd">
<!-- Generated by graphviz version 2.47.0 (20210316.0004)
 -->
<!-- Title: dependencies Pages: 1 -->
<svg width="882pt" height="284pt"
 viewBox="0.00 0.00 882.00 284.00" xmlns="http://www.w3.org/2000/svg" xmlns:xlink="http://www.w3.org/1999/xlink">
<g id="graph0" class="graph" transform="scale(1 1) rotate(0) translate(4 280)">
<title>dependencies</title>
<polygon fill="white" stroke="transparent" points="-4,4 -4,-280 878,-280 878,4 -4,4"/>
<text text-anchor="start" x="416.01" y="-42.4" font-family="Times-12" font-weight="bold" font-size="14.00">Legend</text>
<polygon fill="#ffffb3" stroke="transparent" points="203,-10 203,-30 223,-30 223,-10 203,-10"/>
<text text-anchor="start" x="226.63" y="-15.4" font-family="Times-12" font-size="14.00"> &#160;Declarations</text>
<polygon fill="#8dd3c7" stroke="transparent" points="316,-10 316,-30 336,-30 336,-10 316,-10"/>
<text text-anchor="start" x="339.73" y="-15.4" font-family="Times-12" font-size="14.00"> &#160;Module</text>
<polygon fill="#80b1d3" stroke="transparent" points="402,-10 402,-30 422,-30 422,-10 402,-10"/>
<text text-anchor="start" x="425.78" y="-15.4" font-family="Times-12" font-size="14.00"> &#160;Bootstrap</text>
<polygon fill="#fdb462" stroke="transparent" points="499,-10 499,-30 519,-30 519,-10 499,-10"/>
<text text-anchor="start" x="522.67" y="-15.4" font-family="Times-12" font-size="14.00"> &#160;Providers</text>
<polygon fill="#fb8072" stroke="transparent" points="595,-10 595,-30 615,-30 615,-10 595,-10"/>
<text text-anchor="start" x="618.73" y="-15.4" font-family="Times-12" font-size="14.00"> &#160;Exports</text>
<g id="clust1" class="cluster">
<title>cluster_AppModule</title>
<polygon fill="none" stroke="black" stroke-dasharray="1,5" points="8,-70 8,-268 866,-268 866,-70 8,-70"/>
</g>
<g id="clust3" class="cluster">
<title>cluster_AppModule_imports</title>
<polygon fill="none" stroke="black" points="480,-78 480,-130 858,-130 858,-78 480,-78"/>
</g>
<g id="clust4" class="cluster">
<title>cluster_AppModule_exports</title>
<polygon fill="none" stroke="black" points="407,-208 407,-260 541,-260 541,-208 407,-208"/>
</g>
<g id="clust6" class="cluster">
<title>cluster_AppModule_providers</title>
<polygon fill="none" stroke="black" points="16,-78 16,-130 472,-130 472,-78 16,-78"/>
</g>
<!-- CategoriesModule -->
<g id="node1" class="node">
<title>CategoriesModule</title>
<polygon fill="#8dd3c7" stroke="black" points="849.92,-122 846.92,-126 825.92,-126 822.92,-122 730.08,-122 730.08,-86 849.92,-86 849.92,-122"/>
<text text-anchor="middle" x="790" y="-99.8" font-family="Times,serif" font-size="14.00">CategoriesModule</text>
</g>
<!-- AppModule -->
<g id="node4" class="node">
<title>AppModule</title>
<polygon fill="#8dd3c7" stroke="black" points="515.66,-187 512.66,-191 491.66,-191 488.66,-187 432.34,-187 432.34,-151 515.66,-151 515.66,-187"/>
<text text-anchor="middle" x="474" y="-164.8" font-family="Times,serif" font-size="14.00">AppModule</text>
</g>
<!-- CategoriesModule&#45;&gt;AppModule -->
<g id="edge1" class="edge">
<title>CategoriesModule&#45;&gt;AppModule</title>
<path fill="none" stroke="black" d="M790,-122.28C790,-143.32 790,-175 790,-175 790,-175 525.96,-175 525.96,-175"/>
<polygon fill="black" stroke="black" points="525.96,-171.5 515.96,-175 525.96,-178.5 525.96,-171.5"/>
</g>
<!-- PrismaModule -->
<g id="node2" class="node">
<title>PrismaModule</title>
<polygon fill="#8dd3c7" stroke="black" points="712.43,-122 709.43,-126 688.43,-126 685.43,-122 613.57,-122 613.57,-86 712.43,-86 712.43,-122"/>
<text text-anchor="middle" x="663" y="-99.8" font-family="Times,serif" font-size="14.00">PrismaModule</text>
</g>
<!-- PrismaModule&#45;&gt;AppModule -->
<g id="edge2" class="edge">
<title>PrismaModule&#45;&gt;AppModule</title>
<path fill="none" stroke="black" d="M663,-122.02C663,-139.37 663,-163 663,-163 663,-163 525.95,-163 525.95,-163"/>
<polygon fill="black" stroke="black" points="525.95,-159.5 515.95,-163 525.95,-166.5 525.95,-159.5"/>
</g>
<!-- ProductsModule -->
<g id="node3" class="node">
<title>ProductsModule</title>
<polygon fill="#8dd3c7" stroke="black" points="596.04,-122 593.04,-126 572.04,-126 569.04,-122 487.96,-122 487.96,-86 596.04,-86 596.04,-122"/>
<text text-anchor="middle" x="542" y="-99.8" font-family="Times,serif" font-size="14.00">ProductsModule</text>
</g>
<!-- ProductsModule&#45;&gt;AppModule -->
<g id="edge3" class="edge">
<title>ProductsModule&#45;&gt;AppModule</title>
<path fill="none" stroke="black" d="M501.78,-122.11C501.78,-122.11 501.78,-140.99 501.78,-140.99"/>
<polygon fill="black" stroke="black" points="498.28,-140.99 501.78,-150.99 505.28,-140.99 498.28,-140.99"/>
</g>
<!-- PaginationHelper  -->
<g id="node5" class="node">
<title>PaginationHelper </title>
<polygon fill="#fb8072" stroke="black" points="532.97,-252 415.03,-252 415.03,-216 532.97,-216 532.97,-252"/>
<text text-anchor="middle" x="474" y="-229.8" font-family="Times,serif" font-size="14.00">PaginationHelper </text>
</g>
<!-- AppModule&#45;&gt;PaginationHelper  -->
<g id="edge4" class="edge">
<title>AppModule&#45;&gt;PaginationHelper </title>
<path fill="none" stroke="black" stroke-dasharray="5,2" d="M474,-187.11C474,-187.11 474,-205.99 474,-205.99"/>
<polygon fill="black" stroke="black" points="470.5,-205.99 474,-215.99 477.5,-205.99 470.5,-205.99"/>
</g>
<!-- AppService -->
<g id="node6" class="node">
<title>AppService</title>
<ellipse fill="#fdb462" stroke="black" cx="407" cy="-104" rx="56.74" ry="18"/>
<text text-anchor="middle" x="407" y="-99.8" font-family="Times,serif" font-size="14.00">AppService</text>
</g>
<!-- AppService&#45;&gt;AppModule -->
<g id="edge5" class="edge">
<title>AppService&#45;&gt;AppModule</title>
<path fill="none" stroke="black" d="M447.9,-116.53C447.9,-116.53 447.9,-140.85 447.9,-140.85"/>
<polygon fill="black" stroke="black" points="444.4,-140.85 447.9,-150.85 451.4,-140.85 444.4,-140.85"/>
</g>
<!-- PaginationHelper -->
<g id="node7" class="node">
<title>PaginationHelper</title>
<ellipse fill="#fdb462" stroke="black" cx="254" cy="-104" rx="78.73" ry="18"/>
<text text-anchor="middle" x="254" y="-99.8" font-family="Times,serif" font-size="14.00">PaginationHelper</text>
</g>
<!-- PaginationHelper&#45;&gt;AppModule -->
<g id="edge6" class="edge">
<title>PaginationHelper&#45;&gt;AppModule</title>
<path fill="none" stroke="black" d="M254,-122.02C254,-139.37 254,-163 254,-163 254,-163 422.1,-163 422.1,-163"/>
<polygon fill="black" stroke="black" points="422.1,-166.5 432.1,-163 422.1,-159.5 422.1,-166.5"/>
</g>
<!-- PrismaService -->
<g id="node8" class="node">
<title>PrismaService</title>
<ellipse fill="#fdb462" stroke="black" cx="91" cy="-104" rx="66.63" ry="18"/>
<text text-anchor="middle" x="91" y="-99.8" font-family="Times,serif" font-size="14.00">PrismaService</text>
</g>
<!-- PrismaService&#45;&gt;AppModule -->
<g id="edge7" class="edge">
<title>PrismaService&#45;&gt;AppModule</title>
<path fill="none" stroke="black" d="M91,-122.28C91,-143.32 91,-175 91,-175 91,-175 422.28,-175 422.28,-175"/>
<polygon fill="black" stroke="black" points="422.28,-178.5 432.28,-175 422.28,-171.5 422.28,-178.5"/>
</g>
</g>
</svg>
