<?xml version="1.0" encoding="UTF-8" standalone="no"?>
<!DOCTYPE svg PUBLIC "-//W3C//DTD SVG 1.1//EN"
 "http://www.w3.org/Graphics/SVG/1.1/DTD/svg11.dtd">
<!-- Generated by graphviz version 2.47.0 (20210316.0004)
 -->
<!-- Title: dependencies Pages: 1 -->
<svg width="1644pt" height="428pt"
 viewBox="0.00 0.00 1644.00 428.00" xmlns="http://www.w3.org/2000/svg" xmlns:xlink="http://www.w3.org/1999/xlink">
<g id="graph0" class="graph" transform="scale(1 1) rotate(0) translate(4 424)">
<title>dependencies</title>
<polygon fill="white" stroke="transparent" points="-4,4 -4,-424 1640,-424 1640,4 -4,4"/>
<text text-anchor="start" x="797.01" y="-42.4" font-family="Times-12" font-weight="bold" font-size="14.00">Legend</text>
<polygon fill="#ffffb3" stroke="transparent" points="584,-10 584,-30 604,-30 604,-10 584,-10"/>
<text text-anchor="start" x="607.63" y="-15.4" font-family="Times-12" font-size="14.00"> &#160;Declarations</text>
<polygon fill="#8dd3c7" stroke="transparent" points="697,-10 697,-30 717,-30 717,-10 697,-10"/>
<text text-anchor="start" x="720.73" y="-15.4" font-family="Times-12" font-size="14.00"> &#160;Module</text>
<polygon fill="#80b1d3" stroke="transparent" points="783,-10 783,-30 803,-30 803,-10 783,-10"/>
<text text-anchor="start" x="806.78" y="-15.4" font-family="Times-12" font-size="14.00"> &#160;Bootstrap</text>
<polygon fill="#fdb462" stroke="transparent" points="880,-10 880,-30 900,-30 900,-10 880,-10"/>
<text text-anchor="start" x="903.67" y="-15.4" font-family="Times-12" font-size="14.00"> &#160;Providers</text>
<polygon fill="#fb8072" stroke="transparent" points="976,-10 976,-30 996,-30 996,-10 976,-10"/>
<text text-anchor="start" x="999.73" y="-15.4" font-family="Times-12" font-size="14.00"> &#160;Exports</text>
<g id="clust1" class="cluster">
<title>cluster_AppModule</title>
<polygon fill="none" stroke="black" stroke-dasharray="1,5" points="1016,-70 1016,-412 1488,-412 1488,-70 1016,-70"/>
</g>
<g id="clust3" class="cluster">
<title>cluster_AppModule_imports</title>
<polygon fill="none" stroke="black" points="1036,-146 1036,-274 1298,-274 1298,-146 1036,-146"/>
</g>
<g id="clust4" class="cluster">
<title>cluster_AppModule_exports</title>
<polygon fill="none" stroke="black" points="1205,-352 1205,-404 1339,-404 1339,-352 1205,-352"/>
</g>
<g id="clust6" class="cluster">
<title>cluster_AppModule_providers</title>
<polygon fill="none" stroke="black" points="1024,-78 1024,-130 1480,-130 1480,-78 1024,-78"/>
</g>
<g id="clust7" class="cluster">
<title>cluster_CategoriesModule</title>
<polygon fill="none" stroke="black" stroke-dasharray="1,5" points="8,-138 8,-206 586,-206 586,-138 8,-138"/>
</g>
<g id="clust12" class="cluster">
<title>cluster_CategoriesModule_providers</title>
<polygon fill="none" stroke="black" points="16,-146 16,-198 578,-198 578,-146 16,-146"/>
</g>
<g id="clust13" class="cluster">
<title>cluster_PrismaModule</title>
<polygon fill="none" stroke="black" stroke-dasharray="1,5" points="1496,-214 1496,-282 1628,-282 1628,-214 1496,-214"/>
</g>
<g id="clust16" class="cluster">
<title>cluster_PrismaModule_exports</title>
<polygon fill="none" stroke="black" points="1504,-222 1504,-274 1620,-274 1620,-222 1504,-222"/>
</g>
<g id="clust19" class="cluster">
<title>cluster_ProductsModule</title>
<polygon fill="none" stroke="black" stroke-dasharray="1,5" points="594,-138 594,-206 1008,-206 1008,-138 594,-138"/>
</g>
<g id="clust24" class="cluster">
<title>cluster_ProductsModule_providers</title>
<polygon fill="none" stroke="black" points="602,-146 602,-198 1000,-198 1000,-146 602,-146"/>
</g>
<!-- CategoriesModule -->
<g id="node1" class="node">
<title>CategoriesModule</title>
<polygon fill="#8dd3c7" stroke="black" points="1163.92,-266 1160.92,-270 1139.92,-270 1136.92,-266 1044.08,-266 1044.08,-230 1163.92,-230 1163.92,-266"/>
<text text-anchor="middle" x="1104" y="-243.8" font-family="Times,serif" font-size="14.00">CategoriesModule</text>
</g>
<!-- AppModule -->
<g id="node4" class="node">
<title>AppModule</title>
<polygon fill="#8dd3c7" stroke="black" points="1313.66,-331 1310.66,-335 1289.66,-335 1286.66,-331 1230.34,-331 1230.34,-295 1313.66,-295 1313.66,-331"/>
<text text-anchor="middle" x="1272" y="-308.8" font-family="Times,serif" font-size="14.00">AppModule</text>
</g>
<!-- CategoriesModule&#45;&gt;AppModule -->
<g id="edge1" class="edge">
<title>CategoriesModule&#45;&gt;AppModule</title>
<path fill="none" stroke="black" d="M1104,-266.02C1104,-283.37 1104,-307 1104,-307 1104,-307 1220.04,-307 1220.04,-307"/>
<polygon fill="black" stroke="black" points="1220.04,-310.5 1230.04,-307 1220.04,-303.5 1220.04,-310.5"/>
</g>
<!-- PrismaModule -->
<g id="node2" class="node">
<title>PrismaModule</title>
<polygon fill="#8dd3c7" stroke="black" points="1290.43,-190 1287.43,-194 1266.43,-194 1263.43,-190 1191.57,-190 1191.57,-154 1290.43,-154 1290.43,-190"/>
<text text-anchor="middle" x="1241" y="-167.8" font-family="Times,serif" font-size="14.00">PrismaModule</text>
</g>
<!-- PrismaModule&#45;&gt;CategoriesModule -->
<g id="edge8" class="edge">
<title>PrismaModule&#45;&gt;CategoriesModule</title>
<path fill="none" stroke="black" d="M1191.44,-178C1173.45,-178 1157.46,-178 1157.46,-178 1157.46,-178 1157.46,-219.97 1157.46,-219.97"/>
<polygon fill="black" stroke="black" points="1153.96,-219.97 1157.46,-229.97 1160.96,-219.97 1153.96,-219.97"/>
</g>
<!-- ProductsModule -->
<g id="node3" class="node">
<title>ProductsModule</title>
<polygon fill="#8dd3c7" stroke="black" points="1290.04,-266 1287.04,-270 1266.04,-270 1263.04,-266 1181.96,-266 1181.96,-230 1290.04,-230 1290.04,-266"/>
<text text-anchor="middle" x="1236" y="-243.8" font-family="Times,serif" font-size="14.00">ProductsModule</text>
</g>
<!-- PrismaModule&#45;&gt;ProductsModule -->
<g id="edge15" class="edge">
<title>PrismaModule&#45;&gt;ProductsModule</title>
<path fill="none" stroke="black" d="M1241,-190.01C1241,-190.01 1241,-219.85 1241,-219.85"/>
<polygon fill="black" stroke="black" points="1237.5,-219.85 1241,-229.85 1244.5,-219.85 1237.5,-219.85"/>
</g>
<!-- PrismaModule&#45;&gt;AppModule -->
<g id="edge2" class="edge">
<title>PrismaModule&#45;&gt;AppModule</title>
<path fill="none" stroke="black" d="M1290.66,-181C1295.19,-181 1298.12,-181 1298.12,-181 1298.12,-181 1298.12,-284.92 1298.12,-284.92"/>
<polygon fill="black" stroke="black" points="1294.62,-284.92 1298.12,-294.92 1301.62,-284.92 1294.62,-284.92"/>
</g>
<!-- PrismaService  -->
<g id="node12" class="node">
<title>PrismaService </title>
<polygon fill="#fb8072" stroke="black" points="1612.36,-266 1511.64,-266 1511.64,-230 1612.36,-230 1612.36,-266"/>
<text text-anchor="middle" x="1562" y="-243.8" font-family="Times,serif" font-size="14.00">PrismaService </text>
</g>
<!-- PrismaModule&#45;&gt;PrismaService  -->
<g id="edge13" class="edge">
<title>PrismaModule&#45;&gt;PrismaService </title>
<path fill="none" stroke="black" stroke-dasharray="5,2" d="M1290.45,-172C1380.5,-172 1562,-172 1562,-172 1562,-172 1562,-219.99 1562,-219.99"/>
<polygon fill="black" stroke="black" points="1558.5,-219.99 1562,-229.99 1565.5,-219.99 1558.5,-219.99"/>
</g>
<!-- ProductsModule&#45;&gt;AppModule -->
<g id="edge3" class="edge">
<title>ProductsModule&#45;&gt;AppModule</title>
<path fill="none" stroke="black" d="M1260.22,-266.11C1260.22,-266.11 1260.22,-284.99 1260.22,-284.99"/>
<polygon fill="black" stroke="black" points="1256.72,-284.99 1260.22,-294.99 1263.72,-284.99 1256.72,-284.99"/>
</g>
<!-- PaginationHelper  -->
<g id="node5" class="node">
<title>PaginationHelper </title>
<polygon fill="#fb8072" stroke="black" points="1330.97,-396 1213.03,-396 1213.03,-360 1330.97,-360 1330.97,-396"/>
<text text-anchor="middle" x="1272" y="-373.8" font-family="Times,serif" font-size="14.00">PaginationHelper </text>
</g>
<!-- AppModule&#45;&gt;PaginationHelper  -->
<g id="edge4" class="edge">
<title>AppModule&#45;&gt;PaginationHelper </title>
<path fill="none" stroke="black" stroke-dasharray="5,2" d="M1272,-331.11C1272,-331.11 1272,-349.99 1272,-349.99"/>
<polygon fill="black" stroke="black" points="1268.5,-349.99 1272,-359.99 1275.5,-349.99 1268.5,-349.99"/>
</g>
<!-- AppService -->
<g id="node6" class="node">
<title>AppService</title>
<ellipse fill="#fdb462" stroke="black" cx="1089" cy="-104" rx="56.74" ry="18"/>
<text text-anchor="middle" x="1089" y="-99.8" font-family="Times,serif" font-size="14.00">AppService</text>
</g>
<!-- AppService&#45;&gt;AppModule -->
<g id="edge5" class="edge">
<title>AppService&#45;&gt;AppModule</title>
<path fill="none" stroke="black" d="M1038.34,-112.17C1038.34,-151.44 1038.34,-319 1038.34,-319 1038.34,-319 1220.23,-319 1220.23,-319"/>
<polygon fill="black" stroke="black" points="1220.23,-322.5 1230.23,-319 1220.23,-315.5 1220.23,-322.5"/>
</g>
<!-- PaginationHelper -->
<g id="node7" class="node">
<title>PaginationHelper</title>
<ellipse fill="#fdb462" stroke="black" cx="1242" cy="-104" rx="78.73" ry="18"/>
<text text-anchor="middle" x="1242" y="-99.8" font-family="Times,serif" font-size="14.00">PaginationHelper</text>
</g>
<!-- PaginationHelper&#45;&gt;CategoriesModule -->
<g id="edge12" class="edge">
<title>PaginationHelper&#45;&gt;CategoriesModule</title>
<path fill="none" stroke="black" d="M1163.37,-104C1156.19,-104 1151.54,-104 1151.54,-104 1151.54,-104 1151.54,-219.76 1151.54,-219.76"/>
<polygon fill="black" stroke="black" points="1148.04,-219.76 1151.54,-229.76 1155.04,-219.76 1148.04,-219.76"/>
</g>
<!-- PaginationHelper&#45;&gt;ProductsModule -->
<g id="edge18" class="edge">
<title>PaginationHelper&#45;&gt;ProductsModule</title>
<path fill="none" stroke="black" d="M1189.77,-117.55C1189.77,-117.55 1189.77,-219.91 1189.77,-219.91"/>
<polygon fill="black" stroke="black" points="1186.27,-219.91 1189.77,-229.91 1193.27,-219.91 1186.27,-219.91"/>
</g>
<!-- PaginationHelper&#45;&gt;AppModule -->
<g id="edge6" class="edge">
<title>PaginationHelper&#45;&gt;AppModule</title>
<path fill="none" stroke="black" d="M1305.98,-114.65C1305.98,-114.65 1305.98,-284.73 1305.98,-284.73"/>
<polygon fill="black" stroke="black" points="1302.48,-284.73 1305.98,-294.73 1309.48,-284.73 1302.48,-284.73"/>
</g>
<!-- PrismaService -->
<g id="node8" class="node">
<title>PrismaService</title>
<ellipse fill="#fdb462" stroke="black" cx="1405" cy="-104" rx="66.63" ry="18"/>
<text text-anchor="middle" x="1405" y="-99.8" font-family="Times,serif" font-size="14.00">PrismaService</text>
</g>
<!-- PrismaService&#45;&gt;PrismaModule -->
<g id="edge14" class="edge">
<title>PrismaService&#45;&gt;PrismaModule</title>
<path fill="none" stroke="black" d="M1382.73,-121.07C1382.73,-138.49 1382.73,-163 1382.73,-163 1382.73,-163 1300.57,-163 1300.57,-163"/>
<polygon fill="black" stroke="black" points="1300.57,-159.5 1290.57,-163 1300.57,-166.5 1300.57,-159.5"/>
</g>
<!-- PrismaService&#45;&gt;AppModule -->
<g id="edge7" class="edge">
<title>PrismaService&#45;&gt;AppModule</title>
<path fill="none" stroke="black" d="M1427.27,-121.1C1427.27,-171.02 1427.27,-313 1427.27,-313 1427.27,-313 1324.02,-313 1324.02,-313"/>
<polygon fill="black" stroke="black" points="1324.02,-309.5 1314.02,-313 1324.02,-316.5 1324.02,-309.5"/>
</g>
<!-- CategoriesService -->
<g id="node9" class="node">
<title>CategoriesService</title>
<ellipse fill="#fdb462" stroke="black" cx="343" cy="-172" rx="81.07" ry="18"/>
<text text-anchor="middle" x="343" y="-167.8" font-family="Times,serif" font-size="14.00">CategoriesService</text>
</g>
<!-- CategoriesService&#45;&gt;CategoriesModule -->
<g id="edge9" class="edge">
<title>CategoriesService&#45;&gt;CategoriesModule</title>
<path fill="none" stroke="black" d="M343,-190.01C343,-212.49 343,-248 343,-248 343,-248 1034.29,-248 1034.29,-248"/>
<polygon fill="black" stroke="black" points="1034.29,-251.5 1044.29,-248 1034.29,-244.5 1034.29,-251.5"/>
</g>
<!-- FindAllCategoryProvider -->
<g id="node10" class="node">
<title>FindAllCategoryProvider</title>
<ellipse fill="#fdb462" stroke="black" cx="134" cy="-172" rx="109.97" ry="18"/>
<text text-anchor="middle" x="134" y="-167.8" font-family="Times,serif" font-size="14.00">FindAllCategoryProvider</text>
</g>
<!-- FindAllCategoryProvider&#45;&gt;CategoriesModule -->
<g id="edge10" class="edge">
<title>FindAllCategoryProvider&#45;&gt;CategoriesModule</title>
<path fill="none" stroke="black" d="M134,-190.03C134,-214.98 134,-257 134,-257 134,-257 1034.05,-257 1034.05,-257"/>
<polygon fill="black" stroke="black" points="1034.05,-260.5 1044.05,-257 1034.05,-253.5 1034.05,-260.5"/>
</g>
<!-- GenerateSlug -->
<g id="node11" class="node">
<title>GenerateSlug</title>
<ellipse fill="#fdb462" stroke="black" cx="506" cy="-172" rx="63.68" ry="18"/>
<text text-anchor="middle" x="506" y="-167.8" font-family="Times,serif" font-size="14.00">GenerateSlug</text>
</g>
<!-- GenerateSlug&#45;&gt;CategoriesModule -->
<g id="edge11" class="edge">
<title>GenerateSlug&#45;&gt;CategoriesModule</title>
<path fill="none" stroke="black" d="M527.2,-189.25C527.2,-209.11 527.2,-239 527.2,-239 527.2,-239 1034.17,-239 1034.17,-239"/>
<polygon fill="black" stroke="black" points="1034.17,-242.5 1044.17,-239 1034.17,-235.5 1034.17,-242.5"/>
</g>
<!-- GenerateSlug&#45;&gt;ProductsModule -->
<g id="edge17" class="edge">
<title>GenerateSlug&#45;&gt;ProductsModule</title>
<path fill="none" stroke="black" d="M484.8,-189.01C484.8,-201.76 484.8,-217 484.8,-217 484.8,-217 1183.74,-217 1183.74,-217 1183.74,-217 1183.74,-219.97 1183.74,-219.97"/>
<polygon fill="black" stroke="black" points="1180.24,-219.97 1183.74,-229.97 1187.24,-219.97 1180.24,-219.97"/>
</g>
<!-- FindAllProductsProvider -->
<g id="node13" class="node">
<title>FindAllProductsProvider</title>
<ellipse fill="#fdb462" stroke="black" cx="884" cy="-172" rx="108.26" ry="18"/>
<text text-anchor="middle" x="884" y="-167.8" font-family="Times,serif" font-size="14.00">FindAllProductsProvider</text>
</g>
<!-- FindAllProductsProvider&#45;&gt;ProductsModule -->
<g id="edge16" class="edge">
<title>FindAllProductsProvider&#45;&gt;ProductsModule</title>
<path fill="none" stroke="black" d="M985.99,-166C1074.24,-166 1187.76,-166 1187.76,-166 1187.76,-166 1187.76,-219.8 1187.76,-219.8"/>
<polygon fill="black" stroke="black" points="1184.26,-219.8 1187.76,-229.8 1191.26,-219.8 1184.26,-219.8"/>
</g>
<!-- ProductsService -->
<g id="node14" class="node">
<title>ProductsService</title>
<ellipse fill="#fdb462" stroke="black" cx="684" cy="-172" rx="73.57" ry="18"/>
<text text-anchor="middle" x="684" y="-167.8" font-family="Times,serif" font-size="14.00">ProductsService</text>
</g>
<!-- ProductsService&#45;&gt;ProductsModule -->
<g id="edge19" class="edge">
<title>ProductsService&#45;&gt;ProductsModule</title>
<path fill="none" stroke="black" d="M684,-190.24C684,-197.43 684,-204 684,-204 684,-204 1185.75,-204 1185.75,-204 1185.75,-204 1185.75,-219.85 1185.75,-219.85"/>
<polygon fill="black" stroke="black" points="1182.25,-219.85 1185.75,-229.85 1189.25,-219.85 1182.25,-219.85"/>
</g>
</g>
</svg>
